# xmcd
#
# Track frame offsets:
# 150
# 23534
# 47505
# 64886
# 91217
# 109136
# 123392
# 140032
# 157819
# 174042
# 188046
# 205034
# 219146
# 242228
# 270874
# 289588
#
# Disc length: 4048 seconds
#
#
# Revision: 0
# Processed by: cddbd v1.5.2PL0 Copyright (c) Steve Scherf et al.
# Submitted via: FreeRIP 2.53 
#
DISCID=cd0fce10
DTITLE=Bob Seeley - Solo Piano ("Hot Keys")
DYEAR=1900
DGENRE=Boogie Woogie
TTITLE0=Taboo
TTITLE1=Willow Weep For Me
TTITLE2=Sweet Georgia Brown
TTITLE3=St James Infirmary Blues
TTITLE4=Sentimental Journey
TTITLE5=Six Avenue Express
TTITLE6=Georgia
TTITLE7=Jingles
TTITLE8=Sweet Lorraine
TTITLE9=Hamp's Boogie
TTITLE10=It Had To Be You
TTITLE11=Death Ray Boogie
TTITLE12=Ain't Misbehavin'
TTITLE13=Gershwin Medley
TTITLE14=Viper's Drag
TTITLE15=Show Me The Way To Go Home
EXTD=CD105
EXTT0=
EXTT1=
EXTT2=
EXTT3=
EXTT4=
EXTT5=
EXTT6=
EXTT7=
EXTT8=
EXTT9=
EXTT10=
EXTT11=
EXTT12=
EXTT13=
EXTT14=
EXTT15=
PLAYORDER=
